# xmcd
#
# Track frame offsets: 
#        150
#        19693
#        34974
#        51945
#        68518
#        80467
#        96698
#        118333
#        136013
#        153365
#
# Disc length: 2403 seconds
#
# Revision: 0
# Processed by: cddbd v1.5.2PL0 Copyright (c) Steve Scherf et al.
# Submitted via: ExactAudioCopyFreeDBPlugin 1.0
#
DISCID=8309610a
DTITLE=King Daddy Zeb - Get the People Together
DYEAR=1997
DGENRE=Piano-Blues
TTITLE0=Gisela Told Me
TTITLE1=Messin' Around
TTITLE2=Get the People Together
TTITLE3=Walking Backwards
TTITLE4=Leeway
TTITLE5=Yellow Rose
TTITLE6=The Way
TTITLE7=Mellow
TTITLE8=Bullfrog Blues
TTITLE9=Loser
EXTD=
EXTT0=
EXTT1=
EXTT2=
EXTT3=
EXTT4=
EXTT5=
EXTT6=
EXTT7=
EXTT8=
EXTT9=
PLAYORDER=
